<svg xmlns="http://www.w3.org/2000/svg" viewBox="0 0 64 64" fill="none">
  <rect width="64" height="64" rx="14" fill="#1a2e1a"/>
  <path d="M32 12 C32 12 20 22 20 34 C20 40 25 45 32 45 C39 45 44 40 44 34 C44 22 32 12 32 12Z" fill="#388e3c"/>
  <path d="M32 20 C32 20 24 28 24 36 C24 40 27.5 43 32 43 C36.5 43 40 40 40 36 C40 28 32 20 32 20Z" fill="#4caf50"/>
  <path d="M32 28 C32 28 27 33 27 38 C27 41 29.2 43 32 43 C34.8 43 37 41 37 38 C37 33 32 28 32 28Z" fill="#81c784"/>
  <rect x="30" y="43" width="4" height="10" rx="2" fill="#388e3c"/>
  <path d="M26 48 C26 48 29 46 32 47" stroke="#388e3c" stroke-width="1.5" stroke-linecap="round"/>
  <path d="M38 50 C38 50 35 48 32 49" stroke="#388e3c" stroke-width="1.5" stroke-linecap="round"/>
</svg>
